<svg width="80" height="30" viewBox="0 0 80 30" fill="none" xmlns="http://www.w3.org/2000/svg">
<g clip-path="url(#clip0)">
<path d="M75.1115 7.6928C73.6191 7.6928 72.4095 6.46742 72.4095 4.95485C72.4095 3.44286 73.6191 2.21691 75.1115 2.21691C76.6027 2.21691 77.8124 3.44286 77.8124 4.95485C77.8124 6.46742 76.6027 7.6928 75.1115 7.6928ZM75.1115 0.000124508C72.4106 0.000124508 70.2217 2.21805 70.2217 4.95485C70.2217 7.69165 72.4106 9.91016 75.1115 9.91016C77.8112 9.91016 80.0002 7.69165 80.0002 4.95485C80.0002 2.21805 77.8112 0.000124508 75.1115 0.000124508Z" fill="#9E9E9E"/>
<path d="M5.80138 25.0561H10.9751C14.3375 25.0561 17.552 22.9583 17.552 17.0414C17.552 11.6484 15.7046 8.20285 9.94047 8.20285H5.80138V25.0561ZM0 3.25899H11.3815C18.2175 3.25899 23.354 7.60332 23.354 16.4796C23.354 24.2324 19.4367 30 11.3815 30H0V3.25899Z" fill="#9E9E9E"/>
<path d="M30.2902 25.0561H35.4628C38.8258 25.0561 42.0409 22.9583 42.0409 17.0414C42.0409 11.6485 40.1929 8.20285 34.4288 8.20285H30.2902V25.0561ZM24.4883 3.25899H35.8698C42.7058 3.25899 47.8423 7.60332 47.8423 16.4796C47.8423 24.2324 43.9256 30 35.8698 30H24.4883V3.25899Z" fill="#9E9E9E"/>
<path d="M54.7789 25.4308H60.9867C63.2778 25.4308 65.2731 24.682 65.2731 21.9103C65.2731 19.1764 63.5736 18.0906 61.0979 18.0906H54.7789V25.4308ZM54.7789 14.0832H60.6542C62.6863 14.0832 64.2012 13.1467 64.2012 10.8996C64.2012 8.3533 62.2804 7.82871 60.2112 7.82871H54.7789V14.0832ZM48.9775 3.25956H61.3931C66.4189 3.25956 69.818 4.90713 69.818 9.88818C69.818 12.51 68.5249 14.3452 66.2338 15.4688C69.4489 16.4052 71.0751 18.9144 71.0751 22.2478C71.0751 27.678 66.5296 30 61.7628 30H48.9775V3.25956Z" fill="#9E9E9E"/>
<path d="M72.4102 4.95444C72.4102 6.467 73.6198 7.69238 75.1122 7.69238C76.6034 7.69238 77.813 6.467 77.813 4.95444C77.813 3.44245 76.6034 2.21649 75.1122 2.21649C73.6198 2.21649 72.4102 3.44245 72.4102 4.95444Z" fill="#D2D2D0"/>
</g>
<defs>
<clipPath id="clip0">
<rect width="80" height="30" fill="white"/>
</clipPath>
</defs>
</svg>
